<svg xmlns="http://www.w3.org/2000/svg" viewBox="0 0 448 512">
  <!-- Optimized Font Awesome Icon -->
  <defs>
    <!-- Linear Gradient Definitions -->
    <linearGradient id="paint1_linear" x1="1.6" y1="0" x2="31.8" y2="17.7" gradientUnits="userSpaceOnUse">
      <stop offset="0.26" stop-color="#FFDB6E"/>
      <stop offset="1" stop-color="#F7F777"/>
    </linearGradient>

    <!-- Stronger Glow Filter -->
    <filter id="glow" x="-50%" y="-50%" width="200%" height="200%">
      <feGaussianBlur stdDeviation="8" result="coloredBlur"/>
      <feMerge>
        <feMergeNode in="coloredBlur"/>
        <feMergeNode in="SourceGraphic"/>
      </feMerge>
    </filter>
  </defs>

  <!-- Path with Yellow Glowing Border -->
  <path fill="url(#paint1_linear)" 
        stroke="#FFBC5E" 
        stroke-width="10" 
        fill-rule="evenodd" 
        clip-rule="evenodd" 
        filter="url(#glow)"
        d="M243.6 91.6L323.7 138.4C326.6 140 326.7 144.6 323.7 146.2L228.5 201.9C225.6 203.6 222.2 203.4 219.5 201.9L124.4 146.2C121.4 144.6 121.4 140 124.4 138.4L204.4 91.6V0L0 119.4V358.3L78.4 312.5V218.9C78.3 215.6 82.2 213.2 85.1 215L180.3 270.6C183.2 272.3 184.8 275.3 184.8 278.5V389.7C184.8 393 181 395.4 178.1 393.6L98 346.8L19.6 392.6L224 512L428.4 392.6L350 346.8L269.9 393.6C267.1 395.3 263.1 393.1 263.2 389.7V278.5C263.2 275.1 265.1 272.2 267.7 270.6L362.9 215C365.7 213.2 369.7 215.5 369.6 218.9V312.5L448 358.3V119.4L243.6 0V91.6z"/>
</svg>
